<svg width="68" height="68" viewBox="0 0 68 68" fill="none" xmlns="http://www.w3.org/2000/svg">
<rect width="68" height="68" rx="34" fill="#FBE6E6"/>
<path d="M16.5814 38.4947C16.2022 38.4947 15.8945 38.1871 15.8945 37.8079V34.4417C15.8945 34.0625 16.2022 33.7549 16.5814 33.7549C16.9605 33.7549 17.2682 34.0625 17.2682 34.4417V37.8079C17.2682 38.188 16.9605 38.4947 16.5814 38.4947Z" fill="#EF5265"/>
<path d="M27.204 23.3729C27.0779 23.3729 26.9501 23.338 26.8374 23.2665C26.57 23.0974 26.4528 22.7674 26.553 22.4679C26.5745 22.3981 27.2863 20.072 25.9967 19.2805C24.1339 20.1731 22.1199 20.1722 20.2579 19.2796C18.9675 20.0711 19.6793 22.399 19.7008 22.467C19.7822 22.7111 19.7205 22.9803 19.5407 23.1645C19.3583 23.3505 19.0864 23.4185 18.8387 23.338C18.0812 23.0939 16.814 20.8805 16.8524 19.0453C16.8712 18.1671 17.2057 16.67 19.1132 15.8661C18.8727 14.8072 19.5371 14.2536 19.7849 14.0891C20.6434 13.5176 22.254 13.5078 24.0927 14.0622C25.9601 14.6248 27.5805 15.6228 28.5384 16.7997C29.4711 17.9453 30.6006 20.2974 27.6897 23.1735C27.5546 23.3049 27.3802 23.3729 27.204 23.3729ZM25.9878 17.8282C26.071 17.8282 26.155 17.8434 26.2346 17.8738C27.2192 18.253 27.8506 19.057 28.059 20.174C28.3139 19.3011 28.118 18.4631 27.4705 17.6672C25.6578 15.4404 21.5261 14.58 20.5441 15.2338C20.4726 15.2812 20.3062 15.3921 20.6103 15.9609C20.7087 16.1451 20.7176 16.3633 20.6362 16.5556C20.554 16.747 20.3894 16.8909 20.1882 16.9473C19.073 17.2558 18.447 17.8049 18.2744 18.6268C18.1966 18.997 18.2153 19.3959 18.2905 19.7876C18.5266 18.9836 19.0363 18.2521 20.0192 17.8738C20.2061 17.8013 20.4153 17.8148 20.5915 17.9105C22.2505 18.8048 24.0033 18.8048 25.6623 17.9105C25.7633 17.8559 25.8751 17.8282 25.9878 17.8282Z" fill="#EF5265"/>
<path d="M23.194 28.1697H23.0545C21.7801 28.1697 20.5871 27.5821 19.6955 26.5152C18.8343 25.4841 18.3594 24.1238 18.3594 22.6849C18.3594 22.3057 18.667 21.998 19.0462 21.998C19.4254 21.998 19.733 22.3057 19.733 22.6849C19.733 23.8019 20.0934 24.8491 20.749 25.6343C21.375 26.3828 22.1933 26.796 23.0536 26.796H23.1931C25.0247 26.796 26.5146 24.9528 26.5146 22.6858C26.5146 22.3066 26.8222 21.9989 27.2014 21.9989C27.5806 21.9989 27.8882 22.3066 27.8882 22.6858C27.8891 25.7094 25.783 28.1697 23.194 28.1697Z" fill="#EF5265"/>
<path d="M24.9586 38.4951H13.6321C13.253 38.4951 12.9453 38.1875 12.9453 37.8083V35.5483C12.9453 30.8505 15.7302 29.8757 17.763 29.1639C19.4639 28.5683 20.2795 28.2177 20.2232 26.7591C20.2089 26.3799 20.504 26.0606 20.8832 26.0463C21.2615 26.0311 21.5817 26.3271 21.596 26.7063C21.6943 29.2435 19.8467 29.8901 18.2173 30.4606C16.2131 31.1627 14.3199 31.8253 14.3199 35.5483V37.1214H24.9595C25.3386 37.1214 25.6463 37.4291 25.6463 37.8083C25.6463 38.1875 25.3378 38.4951 24.9586 38.4951ZM32.1685 33.5192C31.8966 33.5192 31.6391 33.3564 31.5317 33.089C30.8717 31.4542 29.4945 30.9722 28.0368 30.4606C26.4073 29.8901 24.5597 29.2426 24.6581 26.7054C24.6724 26.3262 24.9925 26.0311 25.3708 26.0454C25.75 26.0597 26.0451 26.379 26.0308 26.7582C25.9745 28.2168 26.7892 28.5674 28.4911 29.1639C30.0159 29.6978 31.9136 30.3623 32.8061 32.5739C32.9483 32.9253 32.7784 33.326 32.426 33.4682C32.3411 33.5031 32.2543 33.5192 32.1685 33.5192Z" fill="#EF5265"/>
<path d="M21.0798 33.3735C20.8652 33.3735 20.6541 33.2734 20.52 33.0856L18.2565 29.9099C18.0365 29.6013 18.108 29.1721 18.4174 28.9521C18.726 28.7321 19.1552 28.8036 19.3752 29.1131L21.2443 31.7361L21.9839 31.2218L19.6686 29.3339C19.3743 29.0943 19.3305 28.6614 19.5702 28.3672C19.8099 28.073 20.2427 28.0291 20.5369 28.2688L23.5588 30.7326C23.7261 30.8686 23.8191 31.0761 23.811 31.2916C23.803 31.5071 23.6939 31.7065 23.5168 31.8291L21.4715 33.251C21.3517 33.3333 21.2157 33.3735 21.0798 33.3735Z" fill="#EF5265"/>
<path d="M25.1692 33.3735C25.0342 33.3735 24.8973 33.3333 24.7775 33.251L22.7322 31.8291C22.5551 31.7057 22.446 31.5071 22.438 31.2916C22.4299 31.0761 22.5229 30.8695 22.6902 30.7326L25.712 28.2688C26.0063 28.0291 26.4391 28.073 26.6788 28.3672C26.9185 28.6614 26.8746 29.0943 26.5804 29.3339L24.2651 31.2218L25.0046 31.7361L26.8738 29.1131C27.0938 28.8045 27.523 28.7321 27.8316 28.9521C28.1401 29.1721 28.2125 29.6013 27.9925 29.9099L25.729 33.0856C25.5949 33.2725 25.3838 33.3735 25.1692 33.3735Z" fill="#EF5265"/>
<path d="M48.997 23.3729C48.8709 23.3729 48.743 23.338 48.6303 23.2665C48.3629 23.0974 48.2458 22.7674 48.346 22.4679C48.3674 22.3981 49.0793 20.072 47.7897 19.2805C45.9269 20.1731 43.9129 20.1722 42.0509 19.2796C40.7613 20.0702 41.4714 22.3963 41.4938 22.467C41.5751 22.7111 41.5134 22.9803 41.3337 23.1645C41.1512 23.3505 40.8794 23.4185 40.6316 23.338C39.8742 23.0939 38.6069 20.8805 38.6454 19.0453C38.6642 18.1671 38.9986 16.67 40.9062 15.8661C40.6656 14.8072 41.3301 14.2536 41.5778 14.0891C42.4364 13.5176 44.047 13.5078 45.8857 14.0622C47.753 14.6248 49.3735 15.6228 50.3313 16.7997C51.2641 17.9453 52.3936 20.2974 49.4826 23.1735C49.3476 23.3049 49.1732 23.3729 48.997 23.3729ZM47.7808 17.8282C47.8639 17.8282 47.948 17.8434 48.0276 17.8738C49.0113 18.253 49.6436 19.0579 49.852 20.174C50.1069 19.3011 49.911 18.4631 49.2635 17.6672C47.4508 15.4404 43.319 14.58 42.3371 15.2338C42.2664 15.2812 42.0992 15.3921 42.4033 15.9609C42.5016 16.1451 42.5106 16.3633 42.4292 16.5556C42.3469 16.747 42.1824 16.8909 41.9812 16.9473C40.866 17.2558 40.2399 17.8049 40.0673 18.6268C39.9895 18.997 40.0083 19.3968 40.0843 19.7894C40.3195 18.9845 40.8302 18.253 41.8121 17.8747C41.999 17.8022 42.2083 17.8157 42.3845 17.9113C44.0434 18.8057 45.7963 18.8057 47.4552 17.9113C47.5563 17.8559 47.6681 17.8282 47.7808 17.8282Z" fill="#EF5265"/>
<path d="M44.9909 28.1697H44.8514C42.2623 28.1697 40.1562 25.7094 40.1562 22.6849C40.1562 22.3057 40.4639 21.998 40.8431 21.998C41.2223 21.998 41.5299 22.3057 41.5299 22.6849C41.5299 24.9511 43.0198 26.7951 44.8514 26.7951H44.9909C46.8224 26.7951 48.3123 24.9519 48.3123 22.6849C48.3123 22.3057 48.62 21.998 48.9992 21.998C49.3784 21.998 49.686 22.3057 49.686 22.6849C49.686 25.7094 47.5799 28.1697 44.9909 28.1697Z" fill="#EF5265"/>
<path d="M54.4142 38.4952H43.0878C42.7086 38.4952 42.401 38.1876 42.401 37.8084C42.401 37.4292 42.7086 37.1216 43.0878 37.1216H53.7274V35.5485C53.7274 31.8255 51.8342 31.1628 49.83 30.4608C48.1997 29.8902 46.3529 29.2436 46.4513 26.7065C46.4656 26.3273 46.7831 26.0313 47.1641 26.0465C47.5433 26.0608 47.8384 26.38 47.8241 26.7592C47.7677 28.2178 48.5834 28.5684 50.2843 29.164C52.3171 29.8759 55.102 30.8507 55.102 35.5485V37.8084C55.1011 38.1885 54.7934 38.4952 54.4142 38.4952ZM35.8779 33.5193C35.7921 33.5193 35.7053 33.5032 35.6212 33.4692C35.2698 33.327 35.0999 32.9273 35.2412 32.5749C36.1337 30.3633 38.0314 29.6988 39.5562 29.1649C41.2572 28.5693 42.0728 28.2178 42.0164 26.7592C42.0012 26.38 42.2973 26.0608 42.6764 26.0465C43.0592 26.0321 43.3749 26.3273 43.3892 26.7065C43.4876 29.2436 41.6408 29.8911 40.0105 30.4617C38.5528 30.9723 37.1755 31.4552 36.5155 33.09C36.4073 33.3574 36.1498 33.5193 35.8779 33.5193Z" fill="#EF5265"/>
<path d="M51.4642 38.4947C51.085 38.4947 50.7773 38.1871 50.7773 37.8079V34.4417C50.7773 34.0625 51.085 33.7549 51.4642 33.7549C51.8434 33.7549 52.151 34.0625 52.151 34.4417V37.8079C52.151 38.188 51.8434 38.4947 51.4642 38.4947Z" fill="#EF5265"/>
<path d="M42.8767 33.3735C42.662 33.3735 42.451 33.2734 42.3168 33.0856L40.0533 29.9099C39.8333 29.6013 39.9049 29.1721 40.2143 28.9521C40.5237 28.7321 40.9521 28.8036 41.1721 29.1131L43.0421 31.7361L43.7817 31.2218L41.4663 29.3339C41.1721 29.0943 41.1283 28.6614 41.368 28.3672C41.6076 28.073 42.0405 28.0291 42.3338 28.2688L45.3557 30.7326C45.5229 30.8686 45.6159 31.0761 45.6079 31.2916C45.5998 31.5071 45.4907 31.7065 45.3137 31.8291L43.2684 33.251C43.1485 33.3333 43.0126 33.3735 42.8767 33.3735Z" fill="#EF5265"/>
<path d="M46.9661 33.3735C46.831 33.3735 46.6942 33.3333 46.5744 33.251L44.5291 31.8291C44.352 31.7057 44.2429 31.5071 44.2349 31.2916C44.2268 31.0761 44.3198 30.8695 44.4871 30.7326L47.5089 28.2688C47.8031 28.0291 48.236 28.073 48.4748 28.3672C48.7144 28.6614 48.6706 29.0943 48.3764 29.3339L46.061 31.2218L46.8006 31.7361L48.6706 29.1131C48.8906 28.8045 49.3199 28.7321 49.6284 28.9521C49.937 29.1721 50.0094 29.6013 49.7894 29.9099L47.5259 33.0856C47.3918 33.2725 47.1807 33.3735 46.9661 33.3735Z" fill="#EF5265"/>
<path d="M34.0228 49.4516C33.6436 49.4516 33.3359 49.144 33.3359 48.7648V46.1829C33.3359 45.8037 33.6436 45.4961 34.0228 45.4961C34.402 45.4961 34.7096 45.8037 34.7096 46.1829V48.7648C34.7096 49.144 34.402 49.4516 34.0228 49.4516Z" fill="#EF5265"/>
<path d="M34.0225 49.4516C33.9402 49.4516 33.8579 49.4364 33.7792 49.4069C31.6445 48.5993 29.9033 48.2291 27.8204 48.8756C27.612 48.94 27.3849 48.9025 27.2096 48.7728C27.0334 48.6431 26.9297 48.4383 26.9297 48.2201V39.0579C26.9297 38.6787 27.2373 38.3711 27.6165 38.3711H29.7244C30.1036 38.3711 30.4112 38.6787 30.4112 39.0579C30.4112 39.4371 30.1036 39.7448 29.7244 39.7448H28.3033V47.3356C30.2923 46.9341 32.063 47.3124 34.0153 48.0287C36.1554 47.1997 37.8894 46.9887 39.7416 47.35V39.7448H38.3196C37.9404 39.7448 37.6328 39.4371 37.6328 39.0579C37.6328 38.6787 37.9404 38.3711 38.3196 38.3711H40.4284C40.8076 38.3711 41.1152 38.6787 41.1152 39.0579V48.2201C41.1152 48.4356 41.0142 48.6378 40.8425 48.7683C40.6707 48.898 40.4481 48.94 40.2415 48.881C38.2919 48.3292 36.5641 48.4804 34.28 49.4015C34.1968 49.4346 34.1101 49.4516 34.0225 49.4516Z" fill="#EF5265"/>
<path d="M34.0239 46.8687C33.9399 46.8687 33.8558 46.8535 33.7753 46.8222C32.2657 46.2373 31.045 46.1291 29.9343 46.4824C29.7259 46.5485 29.4978 46.5119 29.3208 46.3822C29.1437 46.2525 29.0391 46.0468 29.0391 45.8277V38.3746C29.0391 38.1438 29.1544 37.9292 29.3467 37.8013C30.9475 36.7433 32.6396 36.738 34.3772 37.7861C34.5829 37.9104 34.709 38.1331 34.709 38.3746V46.1819C34.709 46.4081 34.5972 46.6201 34.4103 46.7489C34.2958 46.8285 34.1608 46.8687 34.0239 46.8687ZM31.2614 44.9048C31.9161 44.9048 32.602 45.0103 33.3371 45.2241V38.7788C32.3033 38.2538 31.3598 38.2485 30.4136 38.7627V44.9665C30.6909 44.9254 30.9735 44.9048 31.2614 44.9048Z" fill="#EF5265"/>
<path d="M34.0232 46.8697C33.7531 46.8697 33.4974 46.7096 33.3882 46.4449C33.2434 46.0943 33.4097 45.6928 33.7603 45.5479C35.0973 44.9952 36.3958 44.8056 37.6335 44.9809V38.7628C36.5863 38.194 35.5426 38.2602 34.3774 38.9631C34.0527 39.159 33.6306 39.0543 33.4348 38.7297C33.2389 38.4051 33.3435 37.9829 33.6682 37.7871C35.4058 36.739 37.0987 36.7443 38.6987 37.8023C38.8909 37.9293 39.0063 38.1448 39.0063 38.3755V45.8287C39.0063 46.0451 38.9043 46.2481 38.7317 46.3778C38.5591 46.5075 38.3356 46.5486 38.1281 46.4887C36.9226 46.139 35.6652 46.2464 34.2843 46.8178C34.2003 46.8527 34.1108 46.8697 34.0232 46.8697Z" fill="#EF5265"/>
<path d="M34.0251 54.4779C27.823 54.4779 22.7773 49.4322 22.7773 43.2301C22.7773 37.0281 27.823 31.9824 34.0251 31.9824C40.2271 31.9824 45.2728 37.0281 45.2728 43.2301C45.2728 49.4322 40.2271 54.4779 34.0251 54.4779ZM34.0251 33.357C28.5805 33.357 24.151 37.7865 24.151 43.231C24.151 48.6756 28.5805 53.1051 34.0251 53.1051C39.4696 53.1051 43.8991 48.6756 43.8991 43.231C43.8991 37.7856 39.4696 33.357 34.0251 33.357Z" fill="#EF5265"/>
</svg>
