<svg width="70" height="70" viewBox="0 0 70 70" fill="none" xmlns="http://www.w3.org/2000/svg">
<rect width="70" height="70" rx="35" fill="#E3E5F9"/>
<path d="M51.6911 36.5322L48.1187 35.1486C47.8609 34.3055 47.5205 33.4865 47.1046 32.7071L48.6558 29.2008C48.7563 28.9731 48.7065 28.7076 48.5312 28.5322L45.6205 25.6215C45.4443 25.4462 45.1788 25.3964 44.9519 25.4969L41.4465 27.0472C41.4405 27.0438 41.4353 27.0412 41.4293 27.0387V23.4224L43.6207 21.2327C44.2352 20.6183 44.5737 19.7993 44.5737 18.9253C44.5737 18.0513 44.2352 17.2323 43.6207 16.6179L40.9506 13.9504C40.716 13.7158 40.3353 13.7158 40.0998 13.9504L38.1877 15.8599C38.0752 15.9725 38.0116 16.1254 38.0116 16.2853C38.0116 16.4451 38.0752 16.5981 38.1877 16.7107L40.4032 18.9262L36.5523 22.7753H33.4526L29.6017 18.9262L31.8172 16.7107C31.9298 16.5981 31.9934 16.4443 31.9934 16.2853C31.9934 16.1254 31.9298 15.9725 31.8172 15.8599L29.9051 13.9504C29.6705 13.7158 29.2898 13.7158 29.0543 13.9504L26.3842 16.6179C25.1123 17.8897 25.1123 19.96 26.3842 21.2327L28.5756 23.4215V27.0387C28.5705 27.0412 28.5645 27.0447 28.5593 27.0472L25.053 25.4969C24.8253 25.3964 24.5598 25.4462 24.3845 25.6215L21.4737 28.5322C21.2984 28.7084 21.2486 28.974 21.3491 29.2008L22.9003 32.7071C22.4844 33.4865 22.1441 34.3055 21.8863 35.1486L18.3138 36.5322C18.0818 36.6215 17.9297 36.845 17.9297 37.0933V41.208C17.9297 41.4564 18.0827 41.679 18.3138 41.7692L21.8863 43.1528C22.1441 43.9958 22.4844 44.8148 22.9003 45.5943L21.3491 49.1005C21.2486 49.3283 21.2984 49.5938 21.4737 49.7691L24.3845 52.6798C24.5598 52.8551 24.8262 52.905 25.053 52.8044L28.5602 51.2558C29.3422 51.6709 30.1603 52.0104 31.0016 52.2682L32.3852 55.8406C32.4746 56.0726 32.698 56.2247 32.9464 56.2247H37.0611C37.3095 56.2247 37.532 56.0718 37.6223 55.8406L39.0059 52.2682C39.8489 52.0104 40.6679 51.6701 41.4473 51.2541L44.9536 52.8053C45.1813 52.9058 45.4469 52.856 45.6222 52.6807L48.5329 49.77C48.7082 49.5938 48.758 49.3283 48.6575 49.1014L47.1072 45.5951C47.5223 44.8191 47.8626 44.0001 48.1213 43.1528L51.6937 41.7692C51.9257 41.6798 52.0778 41.4564 52.0778 41.208V37.0933C52.0778 36.845 51.9248 36.6224 51.6937 36.5322H51.6911ZM35.0012 46.1331C34.5612 46.1331 34.1306 46.0901 33.713 46.0119V40.5231C33.713 40.1905 33.444 39.9215 33.1114 39.9215H32.3216L34.9995 35.7287L37.679 39.9215H36.8892C36.5566 39.9215 36.2877 40.1905 36.2877 40.5231V46.0128C35.8709 46.091 35.4412 46.134 35.0012 46.134V46.1331ZM37.4908 41.1247H38.7773C38.9973 41.1247 39.1992 41.0044 39.3049 40.8119C39.4106 40.6194 39.4029 40.3839 39.2843 40.1991L35.5056 34.2866C35.3948 34.1139 35.204 34.009 34.9986 34.009C34.7932 34.009 34.6024 34.1139 34.4916 34.2866L30.7155 40.1991C30.5969 40.3847 30.5891 40.6194 30.6948 40.8119C30.8005 41.0044 31.0025 41.1247 31.2225 41.1247H32.509V45.6716C29.8853 44.6662 28.017 42.1233 28.017 39.1515C28.017 35.3007 31.1503 32.1674 35.0012 32.1674C38.852 32.1674 41.9827 35.3007 41.9827 39.1515C41.9827 42.1241 40.1145 44.6679 37.4908 45.6725V41.1247ZM27.2316 20.3802C26.4289 19.5776 26.4289 18.2704 27.2316 17.4678L29.4763 15.2248L30.5376 16.2844L28.323 18.499C28.2104 18.6116 28.1468 18.7646 28.1468 18.9244C28.1468 19.0843 28.2104 19.2372 28.323 19.3498L32.7762 23.8005C32.8888 23.9131 33.0418 23.9767 33.2016 23.9767H36.7998C36.9597 23.9767 37.1127 23.9131 37.2252 23.8005L41.6785 19.3498C41.7911 19.2372 41.8547 19.0843 41.8547 18.9244C41.8547 18.7646 41.7911 18.6116 41.6785 18.499L39.4639 16.2844L40.5252 15.2248L42.7699 17.4669C43.1566 17.8537 43.3698 18.371 43.3698 18.9236C43.3698 19.4762 43.1566 19.9926 42.7699 20.3794L40.4023 22.7444C40.2898 22.8569 40.2262 23.0099 40.2262 23.1697V32.8506C38.8082 31.6724 36.9872 30.9626 35.0038 30.9626C33.0203 30.9626 31.1976 31.6724 29.7788 32.8515V23.1697C29.7788 23.0099 29.7152 22.8569 29.6026 22.7444L27.235 20.3794L27.2316 20.3802ZM50.8713 40.7955L47.4071 42.1379C47.2309 42.2066 47.0969 42.3536 47.0453 42.5358C46.7755 43.4914 46.3939 44.4118 45.9092 45.2703C45.8155 45.4362 45.8061 45.6355 45.8834 45.8091L47.3873 49.2105L45.0593 51.5386L41.6579 50.0347C41.4843 49.9582 41.2849 49.9676 41.1199 50.0604C40.2554 50.5469 39.335 50.9293 38.3845 51.1965C38.2023 51.2481 38.0554 51.3822 37.9866 51.5583L36.6443 55.0225H33.3546L32.0123 51.5583C31.9435 51.3822 31.7966 51.2481 31.6144 51.1965C30.6665 50.9293 29.7452 50.5477 28.8781 50.0622C28.7131 49.9694 28.5137 49.9608 28.341 50.0372L24.9396 51.5394L22.6116 49.2114L24.1155 45.81C24.192 45.6364 24.1825 45.437 24.0897 45.272C23.6041 44.4083 23.2217 43.4879 22.9536 42.5366C22.902 42.3544 22.768 42.2075 22.5918 42.1387L19.1268 40.7964V37.5067L22.5918 36.1644C22.768 36.0956 22.902 35.9487 22.9536 35.7665C23.2217 34.8151 23.6041 33.8947 24.0897 33.0311C24.1825 32.8661 24.192 32.6658 24.1155 32.4931L22.6116 29.0917L24.9396 26.7637L28.341 28.2676C28.4149 28.3002 28.4931 28.3165 28.5722 28.3183V34.0881C27.4713 35.4829 26.813 37.242 26.813 39.1524C26.813 43.6658 30.486 47.3371 35.0003 47.3371C35.6878 47.3371 36.3564 47.2512 36.9949 47.0904C37.0241 47.0853 37.0525 47.0776 37.0809 47.0681C40.5897 46.1451 43.1859 42.9457 43.1859 39.1515C43.1859 37.2412 42.5276 35.4812 41.4267 34.0864V28.3174C41.5058 28.3157 41.584 28.2994 41.6579 28.2676L45.0593 26.7637L47.3873 29.0917L45.8834 32.4931C45.807 32.6667 45.8164 32.8661 45.9092 33.0311C46.3948 33.8947 46.7772 34.8151 47.0453 35.7665C47.0969 35.9487 47.2309 36.0956 47.4071 36.1644L50.8713 37.5067V40.7964V40.7955ZM34.9995 21.8515C36.8196 21.8515 38.3003 20.3708 38.3003 18.5506C38.3003 16.7304 36.8196 15.2497 34.9995 15.2497C33.1793 15.2497 31.7012 16.7304 31.7012 18.5506C31.7012 20.3708 33.181 21.8515 34.9995 21.8515ZM34.9995 16.4529C36.1562 16.4529 37.0972 17.3939 37.0972 18.5506C37.0972 19.7073 36.1562 20.6483 34.9995 20.6483C33.8427 20.6483 32.9043 19.7073 32.9043 18.5506C32.9043 17.3939 33.8445 16.4529 34.9995 16.4529Z" fill="#EF5265"/>
</svg>
