<svg preserveAspectRatio="none" overflow="visible" style="display: block;" width="39.7297" height="37.8364" viewBox="0 0 39.7297 37.8364" fill="none" xmlns="http://www.w3.org/2000/svg">
<g id="Layer 37">
<path id="Vector" d="M22.7027 34.0525C21.1693 34.0549 19.6427 33.8492 18.1647 33.441C17.9234 33.3735 17.7187 33.2131 17.5955 32.9948C17.4724 32.7766 17.4409 32.5184 17.508 32.277C17.575 32.0355 17.7351 31.8306 17.9532 31.7071C18.1712 31.5836 18.4294 31.5517 18.6709 31.6184C21.3778 32.3671 24.2396 32.348 26.9362 31.5633C29.6328 30.7785 32.058 29.2591 33.9405 27.1748C35.8229 25.0906 37.0885 22.5238 37.5956 19.7615C38.1026 16.9991 37.8313 14.1502 36.8118 11.5332C35.7923 8.91631 34.0649 6.63458 31.8228 4.94324C29.5807 3.2519 26.9123 2.21764 24.116 1.95613C21.3197 1.69461 18.5058 2.21616 15.9889 3.46244C13.4721 4.70872 11.3516 6.63059 9.86455 9.01311C9.73164 9.22589 9.51964 9.37716 9.2752 9.43363C9.03075 9.49011 8.77389 9.44717 8.5611 9.31425C8.34832 9.18134 8.19705 8.96934 8.14058 8.7249C8.0841 8.48045 8.12704 8.22358 8.25996 8.0108C9.82937 5.49648 12.0279 3.43539 14.6382 2.0314C17.2486 0.62741 20.1801 -0.0708514 23.1431 0.00567765C26.106 0.0822067 28.9977 0.930875 31.532 2.46775C34.0664 4.00462 36.1556 6.17645 37.5931 8.76844C39.0306 11.3604 39.7666 14.2828 39.7283 17.2465C39.69 20.2101 38.8786 23.1125 37.3746 25.6664C35.8705 28.2204 33.7258 30.3374 31.1525 31.8082C28.5793 33.2791 25.6667 34.0527 22.7027 34.0525Z" fill="#FF7E7E"/>
<path id="Vector_2" d="M9.69826 27.4285C9.57525 27.4287 9.45342 27.4045 9.33981 27.3574C9.2262 27.3102 9.12307 27.241 9.03637 27.1537L9.02714 27.1445C8.87564 26.989 8.78261 26.7859 8.76386 26.5696C8.7451 26.3533 8.80176 26.1372 8.92423 25.958C9.0467 25.7787 9.22743 25.6474 9.43573 25.5862C9.64403 25.5251 9.86707 25.5379 10.067 25.6225C10.2669 25.7071 10.4314 25.8583 10.5325 26.0504C10.6336 26.2425 10.6651 26.4637 10.6217 26.6764C10.5783 26.8891 10.4626 27.0802 10.2943 27.2173C10.1259 27.3544 9.91535 27.4291 9.69826 27.4285Z" fill="#FF7E7E"/>
<path id="Vector_3" d="M24.4177 21.164C24.2982 21.1642 24.18 21.1384 24.0714 21.0885C23.9628 21.0386 23.8663 20.9657 23.7886 20.8749L21.3055 17.9779C21.2219 17.8804 21.1621 17.7647 21.131 17.64C21.0999 17.5153 21.0983 17.3851 21.1263 17.2597L21.954 13.535C21.9983 13.3361 22.1144 13.1604 22.2802 13.0418C22.4459 12.9231 22.6497 12.8698 22.8523 12.8921C23.0549 12.9143 23.2422 13.0106 23.3782 13.1624C23.5143 13.3142 23.5895 13.5109 23.5895 13.7147V16.8302L25.1577 19.9664C25.2207 20.0925 25.2505 20.2327 25.2441 20.3736C25.2378 20.5145 25.1955 20.6514 25.1214 20.7714C25.0473 20.8914 24.9437 20.9904 24.8205 21.0591C24.6974 21.1279 24.5587 21.164 24.4177 21.164Z" fill="#FF7E7E"/>
<path id="Vector_4" d="M18.9189 37.8362H0.945949C0.695069 37.8362 0.454464 37.7366 0.277064 37.5592C0.0996651 37.3818 3.2992e-06 37.1412 3.2992e-06 36.8903V35.4714C3.2992e-06 32.8371 1.04645 30.3108 2.90915 28.4481C4.77184 26.5854 7.29819 25.5389 9.93244 25.5389C12.5667 25.5389 15.093 26.5854 16.9557 28.4481C18.8184 30.3108 19.8649 32.8371 19.8649 35.4714V36.8903C19.8649 37.1412 19.7652 37.3818 19.5878 37.5592C19.4104 37.7366 19.1698 37.8362 18.9189 37.8362ZM1.8919 35.9443H17.973V35.4714C17.973 33.3389 17.1259 31.2937 15.618 29.7858C14.1101 28.2779 12.0649 27.4308 9.93244 27.4308C7.79995 27.4308 5.75481 28.2779 4.24692 29.7858C2.73902 31.2937 1.8919 33.3389 1.8919 35.4714V35.9443Z" fill="#FF7E7E"/>
<path id="Vector_5" d="M9.93246 30.86C9.03529 30.8555 8.15581 30.61 7.38595 30.1493C6.61609 29.6886 5.98411 29.0296 5.55608 28.2411C5.49555 28.1322 5.45715 28.0124 5.44306 27.8885C5.42898 27.7647 5.43949 27.6394 5.47401 27.5196C5.50852 27.3999 5.56635 27.2881 5.64418 27.1908C5.72201 27.0935 5.81829 27.0125 5.92751 26.9525C6.03673 26.8925 6.15673 26.8547 6.28061 26.8412C6.40449 26.8277 6.52981 26.8389 6.64938 26.874C6.76894 26.9091 6.8804 26.9674 6.97733 27.0457C7.07427 27.124 7.15479 27.2207 7.21425 27.3302C7.47539 27.8243 7.86626 28.2379 8.34483 28.5264C8.8234 28.815 9.37158 28.9677 9.93042 28.9681C10.4893 28.9685 11.0376 28.8165 11.5166 28.5286C11.9956 28.2407 12.387 27.8277 12.6488 27.3339C12.7686 27.1136 12.9711 26.9498 13.2116 26.8787C13.4522 26.8076 13.7111 26.8349 13.9315 26.9547C14.1519 27.0745 14.3156 27.277 14.3867 27.5175C14.4579 27.7581 14.4305 28.017 14.3107 28.2374C13.8845 29.0281 13.2528 29.6892 12.4822 30.1508C11.7116 30.6124 10.8307 30.8574 9.93246 30.86Z" fill="#FF7E7E"/>
<path id="Vector_6" d="M4.72973 37.3632C4.47885 37.3632 4.23825 37.2636 4.06085 37.0862C3.88345 36.9088 3.78379 36.6682 3.78379 36.4173V34.5254C3.78379 34.2745 3.88345 34.0339 4.06085 33.8565C4.23825 33.6791 4.47885 33.5795 4.72973 33.5795C4.98061 33.5795 5.22122 33.6791 5.39862 33.8565C5.57602 34.0339 5.67568 34.2745 5.67568 34.5254V36.4173C5.67568 36.6682 5.57602 36.9088 5.39862 37.0862C5.22122 37.2636 4.98061 37.3632 4.72973 37.3632Z" fill="#FF7E7E"/>
<path id="Vector_7" d="M15.1351 37.3632C14.8843 37.3632 14.6437 37.2636 14.4663 37.0862C14.2889 36.9088 14.1892 36.6682 14.1892 36.4173V34.5254C14.1892 34.2745 14.2889 34.0339 14.4663 33.8565C14.6437 33.6791 14.8843 33.5795 15.1351 33.5795C15.386 33.5795 15.6266 33.6791 15.804 33.8565C15.9814 34.0339 16.0811 34.2745 16.0811 34.5254V36.4173C16.0811 36.6682 15.9814 36.9088 15.804 37.0862C15.6266 37.2636 15.386 37.3632 15.1351 37.3632Z" fill="#FF7E7E"/>
<path id="Vector_8" d="M15.0987 21.2092H11.7103C11.4193 21.2084 11.1323 21.1409 10.8715 21.0119C10.6107 20.8828 10.383 20.6956 10.2059 20.4646L8.67476 18.4596L8.39949 19.7205C8.30571 20.1414 8.07172 20.518 7.73587 20.7885C7.40001 21.0589 6.98223 21.2073 6.55101 21.2092H4.76622C4.51534 21.2092 4.27474 21.1095 4.09734 20.9321C3.91994 20.7547 3.82028 20.5141 3.82028 20.2632C3.82028 20.0124 3.91994 19.7717 4.09734 19.5943C4.27474 19.4169 4.51534 19.3173 4.76622 19.3173H6.55096L7.0438 17.0582C7.10153 16.7937 7.23373 16.5512 7.42481 16.3593C7.61588 16.1675 7.85784 16.0343 8.12215 15.9755C8.38645 15.9167 8.66206 15.9347 8.91645 16.0274C9.17084 16.1202 9.3934 16.2837 9.55785 16.4988L11.7102 19.3173H15.0986C15.3495 19.3173 15.5901 19.4169 15.7675 19.5943C15.9449 19.7717 16.0446 20.0124 16.0446 20.2632C16.0446 20.5141 15.9449 20.7547 15.7675 20.9321C15.5901 21.1095 15.3495 21.2092 15.0987 21.2092Z" fill="#FF7E7E"/>
<path id="Vector_9" d="M9.93242 27.4308C7.98952 27.3639 6.15223 26.5301 4.82261 25.1119C3.49299 23.6936 2.77934 21.8064 2.83782 19.8632C2.77934 17.9201 3.49299 16.0329 4.82261 14.6146C6.15223 13.1964 7.98952 12.3626 9.93242 12.2957C11.8753 12.3626 13.7126 13.1964 15.0422 14.6146C16.3718 16.0329 17.0855 17.9201 17.027 19.8632C17.0855 21.8064 16.3718 23.6936 15.0422 25.1119C13.7126 26.5301 11.8753 27.3639 9.93242 27.4308ZM9.93242 14.1876C8.49137 14.2546 7.13538 14.889 6.16058 15.9525C5.18578 17.0159 4.67138 18.4218 4.72971 19.8632C4.67138 21.3047 5.18578 22.7106 6.16058 23.774C7.13538 24.8374 8.49137 25.4719 9.93242 25.5389C11.3735 25.4719 12.7295 24.8374 13.7043 23.774C14.6791 22.7106 15.1935 21.3047 15.1351 19.8632C15.1935 18.4218 14.6791 17.0159 13.7043 15.9525C12.7295 14.889 11.3735 14.2546 9.93242 14.1876Z" fill="#FF7E7E"/>
<path id="Vector_10" d="M9.03357 9.50037C8.80046 9.50031 8.57557 9.41421 8.40202 9.25857C8.22848 9.10292 8.1185 8.88869 8.09317 8.65696L7.57309 3.88474C7.54589 3.63533 7.61889 3.38533 7.77602 3.18974C7.93315 2.99415 8.16154 2.86899 8.41095 2.8418C8.53445 2.82833 8.65939 2.83932 8.77863 2.87414C8.89788 2.90896 9.0091 2.96692 9.10595 3.04473C9.30154 3.20186 9.4267 3.43025 9.45389 3.67966L9.86267 7.43204L14.0109 6.63713C14.1329 6.61356 14.2584 6.61428 14.3802 6.63924C14.5019 6.6642 14.6176 6.71292 14.7205 6.7826C14.8234 6.85229 14.9116 6.94158 14.98 7.04537C15.0484 7.14916 15.0956 7.26541 15.1191 7.38747C15.1425 7.50954 15.1417 7.63503 15.1166 7.75676C15.0915 7.87849 15.0426 7.99409 14.9728 8.09693C14.903 8.19978 14.8136 8.28785 14.7098 8.35613C14.6059 8.4244 14.4896 8.47154 14.3675 8.49483L9.2119 9.48328C9.15315 9.49468 9.09343 9.5004 9.03357 9.50037Z" fill="#FF7E7E"/>
<path id="Vector_11" d="M22.7027 27.4309C21.1542 27.4343 19.6248 27.0901 18.2271 26.4236C16.8294 25.7571 15.5991 24.7854 14.627 23.5801C14.4691 23.3851 14.3952 23.1354 14.4214 22.8858C14.4477 22.6362 14.572 22.4073 14.767 22.2494C14.962 22.0915 15.2118 22.0176 15.4613 22.0438C15.7109 22.0701 15.9398 22.1944 16.0977 22.3894C17.3011 23.8733 18.9686 24.9094 20.8321 25.331C22.6956 25.7526 24.6467 25.5352 26.3717 24.7137C28.0966 23.8923 29.4952 22.5145 30.3424 20.8021C31.1897 19.0896 31.4363 17.142 31.0427 15.2724C30.6491 13.4028 29.6382 11.7199 28.1725 10.4944C26.7067 9.26885 24.8714 8.57191 22.9617 8.51564C21.0519 8.45937 19.1787 9.04704 17.6434 10.1841C16.1081 11.3212 14.9998 12.9417 14.4968 14.7849C14.4307 15.0265 14.2715 15.232 14.0542 15.3564C13.8368 15.4808 13.5789 15.5139 13.3372 15.4485C13.0954 15.383 12.8895 15.2244 12.7645 15.0074C12.6395 14.7903 12.6057 14.5326 12.6705 14.2907C13.181 12.4194 14.2046 10.7282 15.6256 9.40793C17.0466 8.0877 18.8085 7.19108 20.7121 6.81932C22.6158 6.44756 24.5856 6.61547 26.3989 7.30409C28.2122 7.99271 29.7968 9.1746 30.9739 10.7163C32.1509 12.258 32.8735 14.0981 33.0599 16.0288C33.2464 17.9594 32.8893 19.9038 32.029 21.6422C31.1688 23.3807 29.8396 24.844 28.1915 25.8669C26.5435 26.8897 24.6423 27.4315 22.7027 27.4309Z" fill="#FF7E7E"/>
</g>
</svg>
